<svg width="258" height="258" viewBox="0 0 258 258" version="1.1" xmlns="http://www.w3.org/2000/svg" xmlns:xlink="http://www.w3.org/1999/xlink">
<title>Logo</title>
<desc>Created using Figma</desc>
<g id="Canvas" transform="translate(125 355)">
<g id="Logo" filter="url(#filter0_d)">
<g id="Group">
<g id="Vector">
<use xlink:href="#path0_fill" transform="translate(-125 -355)" fill="#00A6FF"/>
</g>
</g>
<g id="Group">
<g id="Group">
<g id="Group">
<g id="Vector">
<use xlink:href="#path1_fill" transform="translate(-32.4598 -256.5)" fill="#52FF00"/>
</g>
</g>
<g id="Group">
<g id="Vector">
<use xlink:href="#path2_fill" transform="translate(-32.4598 -242.509)" fill="#4EF500"/>
</g>
</g>
<g id="Group">
<g id="Vector">
<use xlink:href="#path3_fill" transform="translate(-3.17451 -242.509)" fill="#47DE00"/>
</g>
</g>
</g>
<g id="Group">
<g id="Group">
<g id="Vector">
<use xlink:href="#path1_fill" transform="translate(-32.4598 -315)" fill="#FFFFFF"/>
</g>
</g>
<g id="Group">
<g id="Vector">
<use xlink:href="#path4_fill" transform="translate(-32.4598 -301.009)" fill="#F7F7F7"/>
</g>
</g>
<g id="Group">
<g id="Vector">
<use xlink:href="#path5_fill" transform="translate(-3.17452 -301.009)" fill="#EBEBEB"/>
</g>
</g>
</g>
<g id="Group">
<g id="Group">
<g id="Vector">
<use xlink:href="#path1_fill" transform="translate(-80 -233.593)" fill="#52FF00"/>
</g>
</g>
<g id="Group">
<g id="Vector">
<use xlink:href="#path4_fill" transform="translate(-80 -219.602)" fill="#4EF500"/>
</g>
</g>
<g id="Group">
<g id="Vector">
<use xlink:href="#path5_fill" transform="translate(-50.7147 -219.602)" fill="#47DE00"/>
</g>
</g>
</g>
<g id="Group">
<g id="Group">
<g id="Vector">
<use xlink:href="#path6_fill" transform="translate(-79.0132 -234.404)" fill="#52FF00"/>
</g>
</g>
<g id="Group">
<g id="Vector">
<use xlink:href="#path7_fill" transform="translate(-79.0132 -220.413)" fill="#4EF500"/>
</g>
</g>
<g id="Group">
<g id="Vector">
<use xlink:href="#path8_fill" transform="translate(-49.7279 -220.413)" fill="#47DE00"/>
</g>
</g>
</g>
<g id="Group">
<g id="Group">
<g id="Vector">
<use xlink:href="#path9_fill" transform="translate(20.1198 -231.303)" fill="#52FF00"/>
</g>
</g>
<g id="Group">
<g id="Vector">
<use xlink:href="#path10_fill" transform="translate(20.1198 -217.312)" fill="#4EF500"/>
</g>
</g>
<g id="Group">
<g id="Vector">
<use xlink:href="#path11_fill" transform="translate(49.4051 -217.312)" fill="#47DE00"/>
</g>
</g>
</g>
<g id="Group">
<g id="Group">
<g id="Vector">
<use xlink:href="#path12_fill" transform="translate(-26.4688 -209.206)" fill="#52FF00"/>
</g>
</g>
<g id="Group">
<g id="Vector">
<use xlink:href="#path13_fill" transform="translate(-26.4688 -195.216)" fill="#4EF500"/>
</g>
</g>
<g id="Group">
<g id="Vector">
<use xlink:href="#path14_fill" transform="translate(2.81647 -195.216)" fill="#47DE00"/>
</g>
</g>
</g>
<g id="Group">
<g id="Group">
<g id="Vector">
<use xlink:href="#path15_fill" transform="translate(-79.0132 -292.939)" fill="#FFFFFF"/>
</g>
</g>
<g id="Group">
<g id="Vector">
<use xlink:href="#path16_fill" transform="translate(-79.0132 -278.948)" fill="#F7F7F7"/>
</g>
</g>
<g id="Group">
<g id="Vector">
<use xlink:href="#path17_fill" transform="translate(-49.7279 -278.948)" fill="#EBEBEB"/>
</g>
</g>
</g>
<g id="Group">
<g id="Group">
<g id="Vector">
<use xlink:href="#path18_fill" transform="translate(20.1198 -289.803)" fill="#FFFFFF"/>
</g>
</g>
<g id="Group">
<g id="Vector">
<use xlink:href="#path19_fill" transform="translate(20.1198 -275.812)" fill="#F7F7F7"/>
</g>
</g>
<g id="Group">
<g id="Vector">
<use xlink:href="#path20_fill" transform="translate(49.4051 -275.812)" fill="#EBEBEB"/>
</g>
</g>
</g>
<g id="Group">
<g id="Group">
<g id="Vector">
<use xlink:href="#path21_fill" transform="translate(-26.4688 -267.742)" fill="#FFFFFF"/>
</g>
</g>
<g id="Group">
<g id="Vector">
<use xlink:href="#path22_fill" transform="translate(-26.4688 -253.716)" fill="#F7F7F7"/>
</g>
</g>
<g id="Group">
<g id="Vector">
<use xlink:href="#path23_fill" transform="translate(2.81647 -253.716)" fill="#EBEBEB"/>
</g>
</g>
</g>
</g>
</g>
</g>
<defs>
<filter id="filter0_d" filterUnits="userSpaceOnUse" x="-126" y="-355" width="259" height="258" color-interpolation-filters="sRGB">
<feFlood flood-opacity="0" result="BackgroundImageFix"/>
<feColorMatrix in="SourceAlpha" type="matrix" values="0 0 0 0 0 0 0 0 0 0 0 0 0 0 0 0 0 0 255 0"/>
<feOffset dx="4" dy="4"/>
<feGaussianBlur stdDeviation="2"/>
<feColorMatrix type="matrix" values="0 0 0 0 0 0 0 0 0 0 0 0 0 0 0 0 0 0 0.07 0"/>
<feBlend mode="normal" in2="BackgroundImageFix" result="effect1_dropShadow"/>
<feBlend mode="normal" in="SourceGraphic" in2="effect1_dropShadow" result="shape"/>
</filter>
<path id="path0_fill" d="M 250 125C 250 194.037 194.037 250 125 250C 55.9628 250 -4.30189e-06 194.037 -4.30189e-06 125C -4.30189e-06 55.9628 55.9628 1.07547e-06 125 1.07547e-06C 194.037 1.07547e-06 250 55.9628 250 125Z"/>
<path id="path1_fill" d="M 8.60377e-06 13.9907L 29.2853 27.9814L 58.5706 13.9907L 29.2853 0L 8.60377e-06 13.9907Z"/>
<path id="path2_fill" d="M 8.60377e-06 4.30189e-06L 8.60377e-06 35.382L 29.2853 49.3727L 29.2853 13.9907L 8.60377e-06 4.30189e-06Z"/>
<path id="path3_fill" d="M 0 49.3727L 29.2853 35.382L 29.2853 4.30189e-06L 0 13.9907L 0 49.3727Z"/>
<path id="path4_fill" d="M 8.60377e-06 4.30189e-06L 8.60377e-06 35.382L 29.2853 49.3727L 29.2853 13.9907L 8.60377e-06 4.30189e-06Z"/>
<path id="path5_fill" d="M 0 49.3727L 29.2853 35.382L 29.2853 4.30189e-06L 0 13.9907L 0 49.3727Z"/>
<path id="path6_fill" d="M -4.30189e-06 13.9907L 29.2853 27.9814L 58.5354 13.9907L 29.2853 4.30189e-06L -4.30189e-06 13.9907Z"/>
<path id="path7_fill" d="M -4.30189e-06 8.60377e-06L -4.30189e-06 35.382L 29.2853 49.3727L 29.2853 13.9907L -4.30189e-06 8.60377e-06Z"/>
<path id="path8_fill" d="M 8.60377e-06 49.3727L 29.2501 35.382L 29.2501 8.60377e-06L 8.60377e-06 13.9907L 8.60377e-06 49.3727Z"/>
<path id="path9_fill" d="M -8.60377e-06 13.9907L 29.2853 28.0166L 58.5354 13.9907L 29.2853 0L -8.60377e-06 13.9907Z"/>
<path id="path10_fill" d="M -8.60377e-06 4.30189e-06L -8.60377e-06 35.4173L 29.2853 49.408L 29.2853 14.0259L -8.60377e-06 4.30189e-06Z"/>
<path id="path11_fill" d="M 4.30189e-06 49.408L 29.2501 35.4173L 29.2501 4.30189e-06L 4.30189e-06 14.0259L 4.30189e-06 49.408Z"/>
<path id="path12_fill" d="M 8.60377e-06 13.9907L 29.2853 27.9814L 58.5706 13.9907L 29.2853 4.30189e-06L 8.60377e-06 13.9907Z"/>
<path id="path13_fill" d="M 8.60377e-06 8.60377e-06L 8.60377e-06 35.382L 29.2853 49.3727L 29.2853 13.9907L 8.60377e-06 8.60377e-06Z"/>
<path id="path14_fill" d="M 0 49.3727L 29.2853 35.382L 29.2853 8.60377e-06L 0 13.9907L 0 49.3727Z"/>
<path id="path15_fill" d="M -4.30189e-06 13.9907L 29.2853 28.0166L 58.5354 13.9907L 29.2853 2.15094e-06L -4.30189e-06 13.9907Z"/>
<path id="path16_fill" d="M -4.30189e-06 -4.30189e-06L -4.30189e-06 35.4172L 29.2853 49.4079L 29.2853 14.0259L -4.30189e-06 -4.30189e-06Z"/>
<path id="path17_fill" d="M 8.60377e-06 49.4079L 29.2501 35.4172L 29.2501 -4.30189e-06L 8.60377e-06 14.0259L 8.60377e-06 49.4079Z"/>
<path id="path18_fill" d="M -8.60377e-06 13.9907L 29.2853 27.9814L 58.5354 13.9907L 29.2853 0L -8.60377e-06 13.9907Z"/>
<path id="path19_fill" d="M -8.60377e-06 4.30189e-06L -8.60377e-06 35.382L 29.2853 49.3727L 29.2853 13.9907L -8.60377e-06 4.30189e-06Z"/>
<path id="path20_fill" d="M 4.30189e-06 49.3727L 29.2501 35.382L 29.2501 4.30189e-06L 4.30189e-06 13.9907L 4.30189e-06 49.3727Z"/>
<path id="path21_fill" d="M 8.60377e-06 14.0259L 29.2853 28.0166L 58.5706 14.0259L 29.2853 2.15094e-06L 8.60377e-06 14.0259Z"/>
<path id="path22_fill" d="M 8.60377e-06 -2.15094e-06L 8.60377e-06 35.382L 29.2853 49.3727L 29.2853 13.9907L 8.60377e-06 -2.15094e-06Z"/>
<path id="path23_fill" d="M 0 49.3727L 29.2853 35.382L 29.2853 -2.15094e-06L 0 13.9907L 0 49.3727Z"/>
</defs>
</svg>
